# xmcd CD database file
#
# Track frame offsets:
#	150
#	1923
#	14496
#	29319
#	45342
#	58665
#	72813
#	85086
#	100959
#	117882
#	130155
#	147903
#	169476
#	185424
#	201297
#	216645
#
# Disc length: 3330 seconds
#
# Revision: 0
# Processed by: cddbd v1.5.2PL0 Copyright (c) Steve Scherf et al.
# Submitted via: CDex 1.51
#
DISCID=e30d0010
DTITLE=The Bosshoss - Rodeo Radio
DYEAR=1900
DGENRE=Country
TTITLE0=Intro
TTITLE1=Rodeo Radio
TTITLE2=Ring Ring Ring
TTITLE3=My Favourite Game
TTITLE4=I Say A Little Prayer
TTITLE5=I'm On A High
TTITLE6=Hell Yeah
TTITLE7=Hot Stuff
TTITLE8=Rodeo Queen
TTITLE9=It's Not Unusual
TTITLE10=Shake A Leg
TTITLE11=Mary Marry Me
TTITLE12=Jesus Built My Hotrod
TTITLE13=Upside Down
TTITLE14=Ca Plane Pour Moi
TTITLE15=You'll Never Walk Alone
EXTD=
EXTT0=
EXTT1=
EXTT2=
EXTT3=
EXTT4=
EXTT5=
EXTT6=
EXTT7=
EXTT8=
EXTT9=
EXTT10=
EXTT11=
EXTT12=
EXTT13=
EXTT14=
EXTT15=
PLAYORDER=
